 <svg version="1.0" xmlns="http://www.w3.org/2000/svg" width="700.000000pt" height="380.000000pt" viewBox="0 0 700.000000 380.000000" preserveAspectRatio="xMidYMid meet">
<metadata>
Created by potrace 1.12, written by Peter Selinger 2001-2015
</metadata>
<g transform="translate(0.000000,380.000000) scale(0.100000,-0.100000)" fill="#000000" stroke="none">
<path d="M164 2330 c-36 -14 -72 -67 -80 -117 -4 -26 -3 -165 2 -308 10 -256
10 -262 38 -318 27 -57 84 -111 138 -134 14 -7 196 -50 405 -97 208 -47 574
-130 813 -185 494 -113 1189 -270 1485 -336 110 -24 400 -91 645 -147 583
-135 619 -136 671 -23 16 35 19 68 19 270 0 285 -10 379 -47 446 -53 99 -106
127 -329 173 -93 19 -383 81 -644 136 -261 56 -547 116 -635 135 -213 45
-1410 302 -1956 420 -428 93 -483 102 -525 85z m2948 -947 c10 -9 18 -21 18
-27 0 -6 -7 0 -16 12 -17 24 -43 29 -62 10 -7 -7 -12 -8 -12 -2 0 28 44 33 72
7z m166 -83 c2 -32 -1 -40 -15 -40 -13 0 -14 3 -5 12 15 15 16 48 1 48 -5 0
-7 5 -4 10 12 20 21 9 23 -30z m70 -1 c2 -15 -4 -31 -14 -40 -13 -10 -16 -10
-10 -1 5 8 1 21 -9 32 -19 21 -12 43 13 38 10 -2 18 -15 20 -29z m-288 0 c0
-6 -4 -7 -10 -4 -5 3 -10 11 -10 16 0 6 5 7 10 4 6 -3 10 -11 10 -16z m347 5
c3 -9 1 -26 -6 -37 -10 -16 -10 -21 1 -28 10 -7 9 -9 -4 -9 -24 0 -30 15 -13
30 20 17 20 54 0 46 -8 -3 -15 -1 -15 4 0 17 30 11 37 -6z m85 -49 c2 -27 -1
-44 -7 -42 -5 2 -9 18 -7 35 2 19 -1 32 -8 32 -6 0 -8 5 -5 10 13 21 23 8 27
-35z m53 14 c-4 -6 1 -16 11 -23 21 -16 12 -49 -13 -44 -22 4 -29 44 -13 64
14 16 24 19 15 3z m76 -6 c0 -5 2 -23 5 -41 4 -30 2 -33 -19 -30 -18 2 -22 10
-24 41 -2 31 1 37 17 37 11 0 20 -3 21 -7z m81 -53 c2 -25 -1 -40 -8 -40 -6 0
-9 12 -6 30 3 19 0 30 -7 30 -7 0 -9 5 -6 10 13 20 23 9 27 -30z m90 -20 c2
-25 -1 -40 -8 -40 -6 0 -9 12 -6 30 3 19 0 30 -7 30 -7 0 -9 5 -6 10 13 20 23
9 27 -30z m226 -40 c-7 -11 -19 -22 -27 -25 -12 -5 -12 -3 0 12 13 17 31 32
37 33 1 0 -3 -9 -10 -20z m-600 -220 c70 -16 136 -32 148 -35 17 -4 21 -13 23
-60 1 -30 -1 -55 -4 -55 -8 0 -217 48 -267 61 l-38 10 0 54 c0 30 2 55 6 55 3
0 62 -13 132 -30z m215 -87 c-7 -2 -13 -12 -12 -21 0 -11 2 -12 6 -4 2 6 9 10
14 6 5 -3 9 0 9 5 0 6 7 11 15 11 13 0 14 -4 5 -20 -13 -24 4 -28 17 -5 12 21
77 9 69 -12 -4 -8 -6 -18 -6 -22 0 -9 -131 18 -144 30 -13 12 1 39 21 38 11 0
13 -3 6 -6z m199 -17 c9 -13 11 -90 2 -98 -3 -3 -17 -3 -31 1 -22 6 -25 12
-26 63 -2 56 -2 57 23 51 14 -3 28 -11 32 -17z"></path>
<path d="M3317 1314 c-8 -8 1 -24 14 -24 5 0 9 7 9 15 0 15 -12 20 -23 9z"></path>
<path d="M3530 1225 c0 -9 5 -15 11 -13 6 2 11 8 11 13 0 5 -5 11 -11 13 -6 2
-11 -4 -11 -13z"></path>
<path d="M3590 1250 c0 -5 5 -10 10 -10 6 0 10 5 10 10 0 6 -4 10 -10 10 -5 0
-10 -4 -10 -10z"></path>
<path d="M3590 1216 c0 -9 7 -16 16 -16 17 0 14 22 -4 28 -7 2 -12 -3 -12 -12z"></path>
<path d="M3302 899 c2 -12 13 -25 24 -30 20 -7 21 -5 15 19 -9 34 -44 44 -39
11z m28 2 c0 -6 -4 -13 -10 -16 -5 -3 -10 1 -10 9 0 9 5 16 10 16 6 0 10 -4
10 -9z"></path>
<path d="M3360 890 c0 -20 16 -30 73 -44 25 -6 28 -4 25 16 -3 26 -38 38 -38
14 0 -9 -4 -16 -10 -16 -5 0 -10 9 -10 19 0 10 -7 22 -16 25 -23 9 -24 8 -24
-14z m24 -5 c3 -8 1 -15 -4 -15 -6 0 -10 7 -10 15 0 8 2 15 4 15 2 0 6 -7 10
-15z m66 -20 c0 -8 -2 -15 -4 -15 -2 0 -6 7 -10 15 -3 8 -1 15 4 15 6 0 10 -7
10 -15z"></path>
<path d="M3480 860 c0 -19 3 -21 12 -12 9 9 9 15 0 24 -9 9 -12 7 -12 -12z"></path>
<path d="M3511 858 c-6 -17 -4 -25 6 -31 8 -5 17 -6 20 -3 4 3 2 6 -4 6 -6 0
-8 11 -5 25 6 31 -6 33 -17 3z"></path>
<path d="M3550 846 c0 -8 5 -18 10 -21 6 -3 10 3 10 14 0 12 -4 21 -10 21 -5
0 -10 -6 -10 -14z"></path>
<path d="M3720 800 c0 -5 4 -10 9 -10 6 0 13 5 16 10 3 6 -1 10 -9 10 -9 0
-16 -4 -16 -10z"></path>
<path d="M3795 791 c-7 -12 12 -24 25 -16 11 7 4 25 -10 25 -5 0 -11 -4 -15
-9z"></path>
<path d="M6775 2301 c-16 -10 -34 -16 -39 -13 -5 3 -6 0 -3 -5 4 -6 -8 -18
-26 -27 -17 -8 -70 -43 -117 -76 -47 -33 -96 -66 -110 -72 -14 -7 -41 -25 -61
-40 -20 -15 -39 -28 -42 -28 -3 0 -87 -54 -185 -120 -99 -66 -182 -120 -184
-120 -3 0 -82 -52 -177 -115 -95 -63 -174 -115 -177 -115 -2 0 -47 -29 -99
-65 -53 -36 -98 -65 -100 -65 -3 0 -13 -7 -22 -16 -17 -15 -210 -142 -265
-174 -26 -15 -464 -307 -483 -322 -5 -4 -85 -58 -177 -119 -152 -101 -170
-116 -193 -160 -13 -28 -19 -47 -12 -43 111 67 2431 1620 2455 1643 27 28 59
73 50 70 -2 0 -16 -9 -33 -18z"></path>
</g>
</svg>